<svg xmlns="http://www.w3.org/2000/svg" xmlns:xlink="http://www.w3.org/1999/xlink" viewBox="0,0,256,256" width="64px" height="64px" fill-rule="nonzero"><g fill="#ffffff" fill-rule="nonzero" stroke="none" stroke-width="1" stroke-linecap="butt" stroke-linejoin="miter" stroke-miterlimit="10" stroke-dasharray="" stroke-dashoffset="0" font-family="none" font-weight="none" font-size="none" text-anchor="none" style="mix-blend-mode: normal"><g transform="scale(8,8)"><path d="M6.58398,9.00977c-1.36,0 -2.7407,0.53031 -2.9707,0.82031c-0.06,0.12 -0.19914,1.08984 0.13086,1.08984c0.11,0 0.16047,0.01914 0.48047,-0.13086c1.2,-0.47 1.96031,-0.45898 2.07031,-0.45898c1.35,-0.13 2.12977,0.79047 2.00977,1.98047v0.69922c-1.14,-0.27 -1.79133,-0.2793 -2.11133,-0.2793c-1.66,-0.1 -3.19336,0.77522 -3.19336,2.69922c0,2.11 1.88328,2.56125 2.61328,2.53125c1.09,0.01 2.13031,-0.48008 2.82031,-1.33008c0.55,1.23 0.90016,1.14844 0.91016,1.14844c0.1,0 0.17977,-0.03984 0.25977,-0.08984l0.57031,-0.40039c0.1,-0.06 0.17945,-0.1593 0.18945,-0.2793c-0.01,-0.29 -0.53023,-0.74 -0.49023,-1.75v-3.11914c0.06,-0.86 -0.21883,-1.70156 -0.79883,-2.35156c-0.69,-0.58 -1.60023,-0.8593 -2.49023,-0.7793zM25.95703,9.00977c-2,0 -3.14914,1.24953 -3.11914,2.51953c0,1.74 1.75898,2.29156 1.95898,2.35156c1.69,0.53 1.92063,0.54922 2.39063,0.94922c0.4,0.41 0.34977,1.21055 -0.24023,1.56055c-0.17,0.1 -0.90078,0.53922 -2.55078,0.19922c-0.55,-0.11 -0.83906,-0.23969 -1.28906,-0.42969c-0.12,-0.04 -0.40039,-0.11023 -0.40039,0.25977v0.49023c0,0.23 0.13961,0.43906 0.34961,0.53906c1.05,0.53 2.31008,0.55078 2.58008,0.55078c0.04,0 2.33938,0.00122 3.10938,-1.55078c0.159,-0.32 0.57078,-1.48828 -0.19922,-2.48828c-0.64,-0.75 -1.19008,-0.83008 -2.83008,-1.33008c-0.14,-0.04 -1.34984,-0.35117 -1.33984,-1.20117c-0.06,-1.09 1.42047,-1.14891 1.73047,-1.12891c1.25,-0.02 1.86898,0.44852 2.20898,0.47852c0.15,0 0.2207,-0.08906 0.2207,-0.28906v-0.46094c0.01,-0.11 -0.02984,-0.21859 -0.08984,-0.30859c-0.4,-0.52 -1.93023,-0.71094 -2.49023,-0.71094zM10.77734,9.25977c-0.11,0.02 -0.18992,0.13023 -0.16992,0.24023c0.02,0.13 0.03984,0.26062 0.08984,0.39063l2.24023,7.38867c0.05,0.24 0.20859,0.50094 0.55859,0.46094h0.82031c0.5,0.05 0.57008,-0.43047 0.58008,-0.48047l1.4707,-6.16016l1.49023,6.16992c0.01,0.05 0.08031,0.53047 0.57031,0.48047h0.83008c0.36,0.04 0.53008,-0.22094 0.58008,-0.46094c2.52,-8.11 2.34914,-7.55867 2.36914,-7.63867c0.04,-0.42 -0.20023,-0.39086 -0.24023,-0.38086h-0.89062c-0.45,-0.05 -0.53859,0.36094 -0.55859,0.46094l-1.66016,6.41016l-1.5,-6.41016c-0.07,-0.49 -0.47031,-0.47094 -0.57031,-0.46094h-0.76953c-0.44,-0.04 -0.55008,0.31094 -0.58008,0.46094l-1.49023,6.32031l-1.59961,-6.32031c-0.04,-0.2 -0.17055,-0.5107 -0.56055,-0.4707zM6.52344,13.89063c0.72,0.01 1.34148,0.11875 1.77148,0.21875c0,0.5 0.0182,0.78047 -0.0918,1.23047c-0.14,0.48 -0.75875,1.35109 -2.21875,1.37109c-0.84,0.04 -1.38984,-0.62109 -1.33984,-1.37109c-0.05,-1.2 1.18891,-1.49922 1.87891,-1.44922zM29.04102,20.00195c-0.93337,0.013 -2.03509,0.22209 -2.87109,0.80859c-0.258,0.179 -0.21278,0.42753 0.07422,0.39453c0.94,-0.113 3.03225,-0.36667 3.40625,0.11133c0.375,0.478 -0.41467,2.45003 -0.76367,3.33203c-0.108,0.263 0.12033,0.37187 0.36133,0.17187c1.564,-1.31 1.97039,-4.05617 1.65039,-4.45117c-0.1605,-0.1975 -0.92405,-0.38019 -1.85742,-0.36719zM1.2168,21.00195c-0.21806,0.03 -0.31198,0.30639 -0.08398,0.52539c3.917,3.674 9.09284,5.47266 14.83984,5.47266c4.099,0 8.85758,-1.33742 12.14258,-3.85742c0.543,-0.419 0.08044,-1.04683 -0.47656,-0.79883c-3.683,1.625 -7.68322,2.4082 -11.32422,2.4082c-5.396,0 -10.6197,-1.12655 -14.8457,-3.68555c-0.0925,-0.056 -0.17927,-0.07445 -0.25195,-0.06445z"></path></g></g></svg>